<?xml version="1.0" encoding="UTF-8" standalone="no"?>
<svg
   version="1.1"
   viewBox="0 0 1024 1024"
   width="1024.0pt"
   height="1024.0pt"
   id="svg88"
   sodipodi:docname="icon_boardgame.svg"
   inkscape:version="1.2.1 (9c6d41e4, 2022-07-14)"
   xmlns:inkscape="http://www.inkscape.org/namespaces/inkscape"
   xmlns:sodipodi="http://sodipodi.sourceforge.net/DTD/sodipodi-0.dtd"
   xmlns="http://www.w3.org/2000/svg"
   xmlns:svg="http://www.w3.org/2000/svg">
  <defs
     id="defs92" />
  <sodipodi:namedview
     id="namedview90"
     pagecolor="#505050"
     bordercolor="#eeeeee"
     borderopacity="1"
     inkscape:showpageshadow="0"
     inkscape:pageopacity="0"
     inkscape:pagecheckerboard="0"
     inkscape:deskcolor="#505050"
     inkscape:document-units="pt"
     showgrid="false"
     inkscape:zoom="0.59912109"
     inkscape:cx="584.18908"
     inkscape:cy="682.66667"
     inkscape:window-width="1337"
     inkscape:window-height="968"
     inkscape:window-x="0"
     inkscape:window-y="25"
     inkscape:window-maximized="0"
     inkscape:current-layer="svg88" />
  <path
     d="m 289.39,102.71 c 1.69,0.99 3.35,2.03 5.05,3.01 2.36,1.28 4.65,2.67 6.97,4.01 2.07,1.16 4.1,2.39 6.17,3.54 2.32,1.35 4.61,2.74 6.98,4.01 1.96,1.15 3.91,2.31 5.88,3.44 2.35,1.29 4.64,2.68 6.96,4.01 2.07,1.17 4.09,2.39 6.17,3.54 1.97,1.14 3.92,2.29 5.88,3.45 2.37,1.26 4.66,2.65 6.98,4.01 2.07,1.15 4.1,2.37 6.17,3.54 2.33,1.32 4.61,2.72 6.96,4.01 1.97,1.14 3.92,2.29 5.88,3.44 2.37,1.27 4.66,2.66 6.98,4.01 2.07,1.15 4.1,2.38 6.17,3.54 2.32,1.35 4.6,2.74 6.97,4.01 1.96,1.14 3.92,2.3 5.88,3.44 2.35,1.28 4.65,2.67 6.97,4.01 2.07,1.16 4.09,2.39 6.17,3.54 2.32,1.36 4.61,2.74 6.98,4.01 1.96,1.15 3.91,2.31 5.88,3.45 2.34,1.28 4.64,2.67 6.96,4 2.06,1.17 4.09,2.39 6.16,3.54 1.97,1.14 3.93,2.29 5.88,3.44 2.37,1.28 4.67,2.67 6.99,4.02 2.07,1.15 4.1,2.37 6.16,3.54 2.32,1.34 4.62,2.73 6.97,4.01 1.97,1.13 3.92,2.29 5.88,3.44 2.36,1.28 4.65,2.66 6.98,4.01 2.07,1.15 4.09,2.38 6.16,3.54 2.33,1.35 4.61,2.74 6.98,4.01 1.96,1.14 3.91,2.3 5.88,3.44 2.35,1.28 4.65,2.67 6.97,4.01 2.06,1.17 4.09,2.39 6.16,3.54 2.32,1.35 4.62,2.74 6.99,4.01 1.95,1.16 3.91,2.31 5.87,3.45 2.59,1.57 5.78,2.85 7.87,5.06 2.74,4.26 1.81,10.34 1.98,15.18 0.16,78.66 0.24,157.34 0.37,236 -0.02,5.27 0.24,10.61 -0.25,15.87 l 1.09,0.87 c 15.83,-27.09 31.5,-54.32 46.8,-81.71 90.62,0.01 181.25,-0.01 271.87,0.01 2.12,1.93 4.25,3.54 5.73,6.07 42.42,73.27 84.8,146.57 127.24,219.84 1.18,2.07 2.03,4.17 3.79,5.86 0.12,2.89 0.11,5.79 0.02,8.68 -0.67,0.79 -1.29,1.62 -1.85,2.49 -40.25,70.38 -80.67,140.66 -120.85,211.08 -3.9,6.01 -5.82,11.72 -10.55,16.59 -1.93,1.57 -4.16,2.42 -6.67,2.33 -4.01,-0.13 -8.01,-0.25 -12.02,-0.19 -81.67,0.01 -163.33,0 -245,0.01 -3.7,0.03 -7.16,0.52 -10.72,-0.81 -4.72,-6.12 -8.08,-12.94 -12.09,-19.48 -7.02,-12.74 -14.57,-25.34 -21.76,-38 -19.23,-33.05 -38.35,-66.37 -57.55,-99.43 -14.24,-24.81 -28.77,-49.48 -42.87,-74.37 -1.34,-1.86 -0.95,-3.72 -1.09,-5.89 0.51,-0.35 1.02,-0.71 1.53,-1.07 0.66,-2.61 1.66,-4.88 3.06,-7.18 4.86,-8.85 10.36,-17.29 14.58,-26.49 6.79,-11.56 13.12,-23.41 20.15,-34.82 6.36,-9.61 11.61,-19.79 17.49,-29.67 8.5,-14.89 17.16,-29.39 24.93,-44.74 -1.08,0.47 -2.16,0.94 -3.24,1.41 -71.97,41.56 -143.93,83.66 -215.84,125.37 -4.84,2.84 -8.68,5.79 -14.7,4.92 -3.31,-0.96 -6.33,-3.22 -9.4,-4.79 -1.95,-1.19 -3.91,-2.34 -5.88,-3.46 -2.07,-1.16 -4.11,-2.38 -6.19,-3.54 -2.31,-1.36 -4.61,-2.73 -6.97,-4 -1.96,-1.18 -3.92,-2.33 -5.9,-3.46 -2.33,-1.3 -4.61,-2.68 -6.93,-4.01 -2.07,-1.16 -4.11,-2.38 -6.19,-3.53 -2.3,-1.38 -4.6,-2.75 -6.98,-4.01 -1.94,-1.16 -3.9,-2.31 -5.86,-3.45 -2.07,-1.15 -4.1,-2.38 -6.17,-3.54 -2.32,-1.35 -4.62,-2.73 -6.98,-4 -1.96,-1.16 -3.93,-2.31 -5.9,-3.46 -2.34,-1.28 -4.62,-2.66 -6.94,-4 -2.07,-1.16 -4.1,-2.38 -6.17,-3.54 -2.32,-1.36 -4.62,-2.73 -6.98,-4 -1.96,-1.16 -3.91,-2.32 -5.88,-3.45 -2.35,-1.29 -4.64,-2.68 -6.96,-4.01 -2.07,-1.17 -4.1,-2.4 -6.18,-3.54 -2.31,-1.37 -4.61,-2.74 -6.98,-4 -1.95,-1.17 -3.9,-2.33 -5.87,-3.46 -2.08,-1.15 -4.1,-2.37 -6.17,-3.54 -2.32,-1.34 -4.62,-2.71 -6.96,-4 -2.31,-1.37 -4.61,-2.75 -6.99,-4.01 -1.94,-1.18 -3.9,-2.33 -5.87,-3.45 -2.07,-1.15 -4.1,-2.38 -6.17,-3.54 -2.32,-1.35 -4.61,-2.73 -6.97,-4 -1.96,-1.15 -3.92,-2.3 -5.88,-3.45 -2.35,-1.29 -4.65,-2.67 -6.97,-4.01 -2.07,-1.16 -4.09,-2.39 -6.17,-3.54 -2.32,-1.36 -4.61,-2.74 -6.98,-4.01 -1.96,-1.15 -3.91,-2.31 -5.88,-3.45 -2.34,-1.28 -4.64,-2.67 -6.96,-4 -2.06,-1.17 -4.09,-2.4 -6.17,-3.54 -1.96,-1.14 -3.92,-2.29 -5.87,-3.45 -2.37,-1.27 -4.65,-2.68 -7.02,-3.96 -2.66,-1.53 -4.81,-3.35 -5.58,-6.47 -0.99,-4.77 -0.61,-9.93 -0.66,-14.78 -0.09,-80.36 -0.21,-160.7 -0.26,-241.06 0.02,-3.25 -0.22,-6.39 0.37,-9.61 -0.38,-1.73 -0.24,-2.59 0.79,-4.06 10.23,-8.51 21.86,-13.04 32.59,-20.62 8.4,-5.31 17.21,-9.98 25.69,-15.17 8.87,-5.27 18.2,-9.67 27.04,-15.01 16.97,-10.08 34.23,-19.56 51.02,-29.95 8.88,-5.64 18.28,-10.47 27.47,-15.59 23.15,-13.55 46.37,-26.8 69.43,-40.53 1.54,-1.08 2.42,-0.61 3.95,0.24 z"
     fill="#000000"
     id="path66"
     style="display:inline;fill:#008f00;fill-opacity:1" />
  <path
     d="m 287.91,129.15 c 2.79,0.75 5.3,2.75 7.85,4.11 33.25,19.16 66.9,38.71 100.14,57.76 2.04,0.99 4.15,1.81 6.12,2.95 18.8,10.9 37.64,21.73 56.45,32.61 2.3,1.36 4.93,2.53 6.93,4.3 l -0.79,1.75 c -9.15,0.56 -18.41,-0.04 -27.59,0.35 -10.7,-0.27 -21.37,0.48 -32.08,0 -6.3,0.32 -12.58,0.14 -18.88,0.21 -91.38,0.26 -182.69,0.5 -274.07,0.7 -1.48,0.24 -2.33,-0.3 -2.54,-1.61 19.22,-10.84 38.18,-22.2 57.31,-33.22 37.64,-21.9 75.08,-43.7 112.77,-65.52 2.69,-1.45 5.41,-3.65 8.38,-4.39 z"
     fill="#ffffff"
     id="path68"
     style="display:inline" />
  <path
     d="m 475.99,256.08 c 5.22,-0.43 10.39,0.19 15.62,-0.34 -0.04,1.12 -0.29,2.14 -0.74,3.06 -14.81,25.46 -29.54,51.19 -44.33,76.68 -1.44,2.38 -2.35,4.98 -3.66,7.42 -25.99,44.96 -51.98,90.04 -77.97,135.01 -1.23,2.15 -2.21,4.42 -3.4,6.59 -7.9,13.48 -14.93,27.27 -23.37,40.5 -15.16,26.25 -30.31,52.51 -45.47,78.76 -1.21,2.1 -2.33,4.32 -3.75,6.3 -0.92,-0.08 -1.55,-0.41 -1.88,-0.99 C 253.83,551.57 220.52,494.1 187.29,436.61 153.28,377.98 119.39,319.04 85.24,260.53 c -0.39,-0.77 -2.23,-3.65 -0.1,-3.18 28.57,-0.44 57.29,0.16 85.84,-0.58 8.38,0.6 16.67,-0.19 25.08,-0.02 87.98,-0.19 176,-0.38 263.98,-0.63 5.34,-0.53 10.61,0.24 15.95,-0.04 z"
     fill="#ffffff"
     id="path70"
     style="display:inline" />
  <path
     d="m 498.94,291.02 c 0.77,0.14 1.55,0.31 2.31,0.5 -0.29,9.17 0.03,18.31 -0.07,27.48 0.13,59.38 -0.02,118.84 0.21,178.21 -57.6,33.49 -115.18,67.02 -172.8,100.48 -2.2,1.34 -4.33,2.73 -6.8,3.57 0.45,-3.03 2.19,-5.17 3.64,-7.75 8.1,-13.97 16.11,-27.99 24.25,-41.93 1.75,-2.9 2.21,-6.1 3.64,-9.13 4.26,-8.68 9.74,-16.51 14.41,-24.85 3.82,-6.38 6.3,-12.87 11.25,-18.61 2.11,-2.4 3.51,-5.15 5.06,-7.91 26.28,-45.47 52.5,-90.98 78.8,-136.43 1.44,-2.55 2.38,-5.33 3.87,-7.86 10.79,-18.57 21.48,-37.19 32.23,-55.77 z"
     fill="#ffffff"
     id="path72"
     style="display:inline" />
  <path
     d="m 78.66,295.12 c 58.27,100.88 116.46,201.62 174.65,302.55 0.84,1.3 0.82,2.38 -0.06,3.26 -52.42,-30.19 -105.56,-60.97 -158.02,-91.19 -6.88,-2.93 -12.94,-7.17 -19.56,-10.62 -0.34,-3.02 -0.42,-6.06 -0.35,-9.11 -0.07,-64.64 -0.12,-129.29 -0.16,-193.93 -0.07,-2.8 2.26,-3.48 3.5,-0.96 z"
     fill="#ffffff"
     id="path74"
     style="display:inline;fill:#ffffff;fill-opacity:1" />
  <path
     d="m 323.02,385.09 c 3.56,0.36 6.94,2.15 8.18,5.69 1.8,5 0.44,11.35 -4.99,13.35 -5.71,1.85 -12.26,1.72 -18.21,1.95 -16.71,1.1 -33.28,0.9 -50.01,0.93 -3.72,0.06 -7.63,-1.02 -9.46,-4.55 -1.52,-3.22 -1.52,-7.7 0,-10.92 1.81,-3.51 5.76,-4.63 9.46,-4.55 8.36,0.18 16.66,-0.56 25.01,-0.86 13.4,-0.14 26.58,-1.65 40.02,-1.04 z"
     fill="#000000"
     id="path76"
     style="display:inline;fill:#008f00;fill-opacity:1" />
  <path
     d="m 595,447.22 c 37.98,0.03 76.02,-0.02 113.99,0.02 3.03,-0.04 5.97,-0.75 9.01,-0.73 24.45,0.02 48.91,0.04 73.37,0 0.12,0.86 0.23,1.72 0.35,2.58 -101.28,58.94 -202.57,117.87 -303.91,176.72 -1.25,0.81 -2.6,0.98 -4.03,1.21 0.76,-2.22 1.97,-4.19 3.18,-6.18 33.15,-57.68 66.26,-116.01 99.63,-173.49 2.79,-0.19 5.61,-0.13 8.41,-0.13 z"
     fill="#ffffff"
     id="path78"
     style="display:inline" />
  <path
     d="m 827.21,455.79 c -0.01,136.08 -0.03,272.16 0.01,408.24 -0.8,-0.27 -1.59,-0.53 -2.39,-0.8 -7.32,-4.53 -14.87,-8.61 -22.27,-13 -2.91,-1.84 -5.86,-3.57 -9.01,-4.96 l -0.18,-0.48 c -4.7,-2.08 -8.79,-5.32 -13.42,-7.6 -6.45,-3.51 -12.58,-7.53 -19.1,-10.93 -1.75,-1.08 -3.53,-2.08 -5.34,-3.06 -2.78,-1.81 -5.67,-3.4 -8.59,-4.95 -5.95,-3.48 -11.87,-7.03 -17.89,-10.4 -6.37,-3.64 -12.75,-7.3 -19.09,-11 -3.42,-1.82 -6.55,-4.01 -10.05,-5.66 -1.3,-0.78 -2.61,-1.57 -3.9,-2.38 -4.72,-2.55 -9.25,-5.43 -13.97,-7.99 -4.69,-2.61 -9.24,-5.47 -13.96,-8.04 -5.23,-2.59 -9.86,-6.23 -15.15,-8.64 -5.62,-3.36 -11.24,-6.76 -17,-9.89 -1.75,-1.07 -3.54,-2.06 -5.34,-3.03 -3.9,-2.4 -7.83,-4.75 -11.87,-6.92 -5.35,-2.89 -10.37,-6.28 -15.81,-9.01 -4.61,-2.76 -9.27,-5.48 -13.96,-8.1 -4.69,-2.63 -9.23,-5.55 -14.03,-7.96 -1.36,-0.89 -2.7,-1.81 -4.02,-2.77 l -0.91,0.07 c -4.48,-3.03 -9.3,-5.77 -14.06,-8.34 -10.58,-6.15 -21.21,-12.32 -31.84,-18.39 -6.19,-3.34 -12.13,-7.11 -18.3,-10.49 -2.38,-1.31 -4.74,-2.67 -7.02,-4.16 -0.86,-0.46 -1.71,-0.92 -2.56,-1.4 -1.72,-0.99 -3.44,-1.97 -5.15,-2.96 -4.44,-2.41 -8.64,-5.21 -13.14,-7.53 -1.02,-0.58 -2.05,-1.17 -3.08,-1.75 0.56,-3.24 3.79,-3.76 6.26,-5.25 1.32,-0.91 2.62,-1.84 3.9,-2.8 l 1.01,0.05 c 4.04,-2.87 8.56,-5.02 12.73,-7.69 1.76,-0.99 3.5,-2.01 5.2,-3.09 7.62,-4.12 15,-8.69 22.56,-12.92 1.7,-0.99 3.39,-1.98 5.05,-3.01 9.16,-5.29 18.25,-10.61 27.38,-15.95 4.76,-2.52 9.31,-5.44 13.97,-8.14 1.54,-0.82 3.08,-1.65 4.64,-2.43 l 0.06,-0.52 c 3.14,-1.36 6.06,-3.11 8.92,-4.97 1.84,-0.95 3.63,-1.97 5.42,-3 1.1,-0.7 2.12,-1.48 3.1,-2.36 l 0.96,0.17 c 4.45,-3.1 9.35,-5.69 14.07,-8.38 1.28,-0.82 2.56,-1.62 3.84,-2.44 3.37,-1.57 6.42,-3.59 9.62,-5.46 3.15,-1.83 6.3,-3.64 9.41,-5.53 12.07,-6.81 24.07,-13.89 36.02,-20.93 6.4,-3.5 12.66,-7.37 18.96,-11.06 4.8,-2.43 9.28,-5.45 13.99,-8.06 6.17,-3.47 12.21,-7.3 18.5,-10.54 l 0.12,-0.49 c 1.62,-0.74 3.18,-1.55 4.7,-2.48 1.69,-1.12 3.47,-2.08 5.26,-3.04 2.79,-1.77 5.67,-3.4 8.55,-5.02 7.63,-4.48 15.35,-8.84 22.9,-13.45 10.81,-5.94 21.35,-12.4 32.04,-18.54 1.33,-0.78 2.66,-1.56 3.99,-2.33 1.77,-0.84 3.4,-1.86 4.98,-3.01 4.76,-2.48 9.36,-5.33 13.98,-8.05 3.7,-1.78 6.29,-4.19 10.3,-5 z"
     fill="#ffffff"
     id="path80"
     style="display:inline" />
  <path
     d="m 853.26,481.35 c 2.8,6.1 6.72,11.66 9.93,17.56 1.7,3.45 3.85,6.64 5.69,10.03 3.84,6.24 7.24,12.75 11.02,19.04 19.4,33.41 38.82,67.17 58.26,100.51 1.21,2.2 2.46,4.38 3.73,6.55 4.15,7.59 8.87,14.92 12.84,22.6 l 0.97,-0.13 c -0.1,1.62 0.14,3.09 -0.84,4.5 -3.58,6.06 -7.08,12.18 -10.54,18.31 -2.68,4.65 -5.59,9.2 -7.96,14.01 -6.6,10.91 -12.73,22.1 -19.14,33.12 -4.56,7.76 -8.95,15.66 -13.4,23.48 -0.82,1.45 -1.66,2.89 -2.47,4.35 -1.68,2.96 -3.54,5.8 -5.13,8.8 -2.9,5.42 -6.18,10.6 -9.07,16.01 -3.73,5.9 -6.79,12.23 -10.64,18.05 v 0.9 c -3.87,5.43 -6.87,11.51 -10.15,17.31 -1.96,3.14 -3.72,6.39 -5.53,9.62 -0.83,1.44 -1.68,2.86 -2.5,4.31 -1.73,2.61 -2.98,5.5 -4.7,8.1 l -1.81,0.92 c -0.16,-119.24 0.06,-238.57 -0.12,-357.81 0.52,-0.05 1.04,-0.1 1.56,-0.14 z"
     fill="#ffffff"
     id="path82"
     style="display:inline" />
  <path
     d="m 718.22,612.79 c 1.17,4.69 -0.32,10.43 -0.47,15.22 -0.13,5.73 0.07,11.47 0.01,17.2 7.44,0.2 14.85,0.36 22.27,-0.2 4.26,-0.4 8.53,0.01 12.78,0.57 4.46,0.82 8.7,2.35 11.05,6.52 2.64,5.72 0.06,13.41 -5.94,15.82 -3.83,1.75 -8.88,-0.11 -12.93,-0.23 -8.92,-0.16 -17.87,0.5 -26.78,0.05 -0.07,9.42 -0.02,18.84 -0.02,28.26 -0.02,2.6 -0.19,5.24 -0.67,7.8 -0.81,3.62 -3.88,6.29 -7.52,6.81 -4.43,0.48 -9.3,0.54 -12.49,-3.08 -3.29,-4.09 -2.08,-9.67 -2.31,-14.53 -0.29,-8.11 -0.34,-16.21 -0.44,-24.33 -7.48,0.94 -15.16,0.99 -22.76,1.09 -5.29,0.03 -11.52,-0.57 -15.95,-3.74 -4.73,-3.43 -4.7,-11.09 -1.43,-15.49 2.11,-2.35 5.27,-3.28 8.36,-3.27 10.6,-0.19 21.19,-0.76 31.78,-1.05 0.06,-10.4 -0.59,-20.37 0.89,-30.73 0.79,-3.78 2.71,-7.66 6.33,-9.43 6.25,-2.44 14.09,-0.04 16.24,6.74 z"
     fill="#000000"
     id="path84"
     style="display:inline;fill:#008f00;fill-opacity:1" />
  <path
     d="m 485.35,695.26 c 1.99,-0.02 3.24,0.33 4.9,1.38 90.46,52.26 181.1,104.47 271.5,156.8 10.33,5.81 20.44,12.07 30.89,17.65 0.1,0.82 0.19,1.65 0.29,2.48 -60.64,-0.1 -121.3,-0.04 -181.94,-0.04 -6.67,0.48 -13.33,0.32 -20.01,0.38 -1.35,-0.13 -3.03,0.34 -3.9,-0.98 -2.26,-3.15 -3.89,-6.76 -5.94,-10.06 -31.41,-54.16 -62.81,-108.59 -94.2,-162.76 -0.96,-1.55 -1.35,-3.05 -1.59,-4.85 z"
     fill="#ffffff"
     id="path86"
     style="display:inline" />
  <path
     style="display:inline;fill:#000000;stroke-width:0.75"
     d="m 219.0709,404.3423 83.87286,-58.83618"
     id="path414" />
  <g
     inkscape:groupmode="layer"
     id="layer1"
     inkscape:label="Layer 1"
     style="opacity:1" />
</svg>
